<?xml version="1.0" encoding="utf-8"?>
<!-- Generator: Adobe Illustrator 23.0.6, SVG Export Plug-In . SVG Version: 6.00 Build 0)  -->
<svg version="1.1" id="Layer_1" xmlns="http://www.w3.org/2000/svg" xmlns:xlink="http://www.w3.org/1999/xlink" x="0px" y="0px"
	 viewBox="0 0 720 720" style="enable-background:new 0 0 720 720;" xml:space="preserve">
<style type="text/css">
	.st0{fill:#E03942;}
</style>
<path class="st0" d="M0,360v360h360h360V360V0H360H0V360z M430.8,171.2c2.3,2.3,5.2-8.2-32.8,118.8c-9.5,31.6-22.5,75.3-29,97
	c-44,147.6-47.3,158.6-49.3,160.7c-1.9,2.2-2.8,2.3-16.2,2.3c-14.8,0-16.5-0.5-16.5-4.5c0-1.9,6.3-23.5,36.5-124.5
	c7-23.4,17.1-57.4,22.5-75.5c41.4-139.1,51.1-171.1,52.5-173.1c1.5-2.3,1.9-2.4,16.3-2.4C425,170,430,170.4,430.8,171.2z"/>
</svg>
